<?xml version="1.0" standalone="no"?><!DOCTYPE svg PUBLIC "-//W3C//DTD SVG 1.1//EN" "http://www.w3.org/Graphics/SVG/1.1/DTD/svg11.dtd"><svg t="1488807629443" class="icon" style="" viewBox="0 0 1024 1024" version="1.1" xmlns="http://www.w3.org/2000/svg" p-id="2253" xmlns:xlink="http://www.w3.org/1999/xlink" width="48" height="48"><defs><style type="text/css"></style></defs><path d="M938.666667 296.746667c0 90.794667-73.6 164.394667-164.394667 164.394667L249.728 461.141333C158.933333 461.098667 85.333333 387.541333 85.333333 296.746667l0 0c0-90.752 73.6-164.352 164.394667-164.352l524.544 0C865.066667 132.352 938.666667 205.952 938.666667 296.746667L938.666667 296.746667zM773.674667 179.242667c-64.896 0-117.504 52.608-117.504 117.504 0 64.896 52.608 117.504 117.504 117.504 64.896 0 117.504-52.608 117.504-117.504C891.178667 231.850667 838.570667 179.242667 773.674667 179.242667z" p-id="2254"></path><path d="M85.333333 727.253333c0-90.794667 73.6-164.394667 164.394667-164.394667l524.544 0c90.794667 0 164.394667 73.6 164.394667 164.394667l0 0c0 90.752-73.6 164.352-164.394667 164.352L249.728 891.605333C158.933333 891.648 85.333333 818.048 85.333333 727.253333L85.333333 727.253333zM250.325333 844.757333c64.896 0 117.504-52.608 117.504-117.504 0-64.896-52.608-117.504-117.504-117.504s-117.504 52.608-117.504 117.504C132.821333 792.192 185.429333 844.757333 250.325333 844.757333z" p-id="2255"></path></svg>