<?xml version="1.0" standalone="no"?><!DOCTYPE svg PUBLIC "-//W3C//DTD SVG 1.1//EN" "http://www.w3.org/Graphics/SVG/1.1/DTD/svg11.dtd"><svg t="1488691380312" class="icon" style="" viewBox="0 0 1024 1024" version="1.1" xmlns="http://www.w3.org/2000/svg" p-id="2953" xmlns:xlink="http://www.w3.org/1999/xlink" width="48" height="48"><defs><style type="text/css"></style></defs><path d="M954.824 878.728 738.568 662.402c46.915-61.564 74.822-138.393 74.822-221.769 0-202.296-163.994-366.289-366.289-366.289-202.296 0-366.289 163.993-366.289 366.289S244.804 806.923 447.1 806.923c83.771 0 160.922-28.182 222.631-75.499L885.887 947.65c18.38 18.383 48.458 18.387 66.841 0.008l2.089-2.089C973.2 927.189 973.203 897.112 954.824 878.728zM446.361 714.612c-151.722 0-274.717-122.994-274.717-274.717 0-151.722 122.996-274.716 274.717-274.716s274.717 122.994 274.717 274.716C721.078 591.617 598.083 714.612 446.361 714.612z" p-id="2954"></path><path d="M594.088 420.613c-9.701-9.699-21.576-9.247-21.576-9.247l-92.42-0.104-57.395-0.065-91.408-0.102c-11.513-1.179-21.757 9.065-21.757 9.065-7.976 7.976-8.159 20.667-8.159 20.667 0.001 11.151 8.341 18.494 8.341 18.494 10.243 10.243 20.578 9.338 20.578 9.338l92.403 0 57.461-0.001 92.538 0c14.322 0 21.031-9.61 21.031-9.61 8.793-8.793 7.705-18.764 7.705-18.764C601.429 428.136 594.088 420.613 594.088 420.613z" p-id="2955"></path></svg>